<mxfile host="app.diagrams.net" modified="2022-02-17T20:24:08.433Z" agent="5.0 (Windows NT 10.0; Win64; x64) AppleWebKit/537.36 (KHTML, like Gecko) Chrome/98.0.4758.102 Safari/537.36" etag="v0ub9cAcVU7iLDDrITRb" version="16.5.6" type="github">
  <diagram id="C5RBs43oDa-KdzZeNtuy" name="Page-1">
    <mxGraphModel dx="1114" dy="623" grid="1" gridSize="10" guides="1" tooltips="1" connect="1" arrows="1" fold="1" page="1" pageScale="1" pageWidth="827" pageHeight="1169" math="0" shadow="0">
      <root>
        <mxCell id="WIyWlLk6GJQsqaUBKTNV-0" />
        <mxCell id="WIyWlLk6GJQsqaUBKTNV-1" parent="WIyWlLk6GJQsqaUBKTNV-0" />
        <mxCell id="oz6MJc3T6-2aMoKs3kDX-1" value="Inicio" style="ellipse;whiteSpace=wrap;html=1;" vertex="1" parent="WIyWlLk6GJQsqaUBKTNV-1">
          <mxGeometry x="354" y="40" width="120" height="80" as="geometry" />
        </mxCell>
        <mxCell id="oz6MJc3T6-2aMoKs3kDX-11" style="edgeStyle=orthogonalEdgeStyle;rounded=0;orthogonalLoop=1;jettySize=auto;html=1;exitX=0.5;exitY=1;exitDx=0;exitDy=0;entryX=0.5;entryY=0;entryDx=0;entryDy=0;" edge="1" parent="WIyWlLk6GJQsqaUBKTNV-1" source="oz6MJc3T6-2aMoKs3kDX-2" target="oz6MJc3T6-2aMoKs3kDX-3">
          <mxGeometry relative="1" as="geometry" />
        </mxCell>
        <mxCell id="oz6MJc3T6-2aMoKs3kDX-2" value="PH = 4" style="rounded=1;whiteSpace=wrap;html=1;" vertex="1" parent="WIyWlLk6GJQsqaUBKTNV-1">
          <mxGeometry x="354" y="180" width="120" height="60" as="geometry" />
        </mxCell>
        <mxCell id="oz6MJc3T6-2aMoKs3kDX-12" style="edgeStyle=orthogonalEdgeStyle;rounded=0;orthogonalLoop=1;jettySize=auto;html=1;entryX=0.496;entryY=0.154;entryDx=0;entryDy=0;entryPerimeter=0;" edge="1" parent="WIyWlLk6GJQsqaUBKTNV-1" source="oz6MJc3T6-2aMoKs3kDX-3" target="oz6MJc3T6-2aMoKs3kDX-5">
          <mxGeometry relative="1" as="geometry" />
        </mxCell>
        <mxCell id="oz6MJc3T6-2aMoKs3kDX-3" value="&quot;Ingrese la cantidad de horas trabajadas&quot;" style="shape=parallelogram;perimeter=parallelogramPerimeter;whiteSpace=wrap;html=1;fixedSize=1;" vertex="1" parent="WIyWlLk6GJQsqaUBKTNV-1">
          <mxGeometry x="317" y="290" width="194" height="60" as="geometry" />
        </mxCell>
        <mxCell id="oz6MJc3T6-2aMoKs3kDX-14" style="edgeStyle=orthogonalEdgeStyle;rounded=0;orthogonalLoop=1;jettySize=auto;html=1;exitX=1;exitY=0.5;exitDx=0;exitDy=0;" edge="1" parent="WIyWlLk6GJQsqaUBKTNV-1" source="oz6MJc3T6-2aMoKs3kDX-4">
          <mxGeometry relative="1" as="geometry">
            <mxPoint x="600" y="660" as="targetPoint" />
            <Array as="points">
              <mxPoint x="600" y="591" />
              <mxPoint x="600" y="591" />
            </Array>
          </mxGeometry>
        </mxCell>
        <mxCell id="oz6MJc3T6-2aMoKs3kDX-25" value="SI" style="edgeLabel;html=1;align=center;verticalAlign=middle;resizable=0;points=[];" vertex="1" connectable="0" parent="oz6MJc3T6-2aMoKs3kDX-14">
          <mxGeometry x="-0.6112" y="4" relative="1" as="geometry">
            <mxPoint as="offset" />
          </mxGeometry>
        </mxCell>
        <mxCell id="oz6MJc3T6-2aMoKs3kDX-15" style="edgeStyle=orthogonalEdgeStyle;rounded=0;orthogonalLoop=1;jettySize=auto;html=1;" edge="1" parent="WIyWlLk6GJQsqaUBKTNV-1" source="oz6MJc3T6-2aMoKs3kDX-4">
          <mxGeometry relative="1" as="geometry">
            <mxPoint x="240" y="660" as="targetPoint" />
          </mxGeometry>
        </mxCell>
        <mxCell id="oz6MJc3T6-2aMoKs3kDX-26" value="NO" style="edgeLabel;html=1;align=center;verticalAlign=middle;resizable=0;points=[];" vertex="1" connectable="0" parent="oz6MJc3T6-2aMoKs3kDX-15">
          <mxGeometry x="-0.7217" y="4" relative="1" as="geometry">
            <mxPoint as="offset" />
          </mxGeometry>
        </mxCell>
        <mxCell id="oz6MJc3T6-2aMoKs3kDX-4" value="HT &amp;gt; 8&amp;nbsp;" style="rhombus;whiteSpace=wrap;html=1;" vertex="1" parent="WIyWlLk6GJQsqaUBKTNV-1">
          <mxGeometry x="334" y="530" width="160" height="120" as="geometry" />
        </mxCell>
        <mxCell id="oz6MJc3T6-2aMoKs3kDX-13" style="edgeStyle=orthogonalEdgeStyle;rounded=0;orthogonalLoop=1;jettySize=auto;html=1;exitX=0.5;exitY=1;exitDx=0;exitDy=0;entryX=0.5;entryY=0;entryDx=0;entryDy=0;" edge="1" parent="WIyWlLk6GJQsqaUBKTNV-1" source="oz6MJc3T6-2aMoKs3kDX-5" target="oz6MJc3T6-2aMoKs3kDX-4">
          <mxGeometry relative="1" as="geometry" />
        </mxCell>
        <mxCell id="oz6MJc3T6-2aMoKs3kDX-5" value="&lt;br&gt;Leer (HT)" style="shape=manualInput;whiteSpace=wrap;html=1;" vertex="1" parent="WIyWlLk6GJQsqaUBKTNV-1">
          <mxGeometry x="342" y="410" width="144" height="80" as="geometry" />
        </mxCell>
        <mxCell id="oz6MJc3T6-2aMoKs3kDX-6" value="" style="endArrow=classic;html=1;rounded=0;exitX=0.5;exitY=1;exitDx=0;exitDy=0;entryX=0.5;entryY=0;entryDx=0;entryDy=0;" edge="1" parent="WIyWlLk6GJQsqaUBKTNV-1" source="oz6MJc3T6-2aMoKs3kDX-1" target="oz6MJc3T6-2aMoKs3kDX-2">
          <mxGeometry width="50" height="50" relative="1" as="geometry">
            <mxPoint x="240" y="340" as="sourcePoint" />
            <mxPoint x="290" y="290" as="targetPoint" />
          </mxGeometry>
        </mxCell>
        <mxCell id="oz6MJc3T6-2aMoKs3kDX-22" style="edgeStyle=orthogonalEdgeStyle;rounded=0;orthogonalLoop=1;jettySize=auto;html=1;entryX=1;entryY=0.5;entryDx=0;entryDy=0;entryPerimeter=0;" edge="1" parent="WIyWlLk6GJQsqaUBKTNV-1" source="oz6MJc3T6-2aMoKs3kDX-16" target="oz6MJc3T6-2aMoKs3kDX-19">
          <mxGeometry relative="1" as="geometry">
            <mxPoint x="600" y="840" as="targetPoint" />
            <Array as="points">
              <mxPoint x="600" y="830" />
            </Array>
          </mxGeometry>
        </mxCell>
        <mxCell id="oz6MJc3T6-2aMoKs3kDX-16" value="PT = HT*2*PH" style="rounded=0;whiteSpace=wrap;html=1;" vertex="1" parent="WIyWlLk6GJQsqaUBKTNV-1">
          <mxGeometry x="530" y="660" width="140" height="70" as="geometry" />
        </mxCell>
        <mxCell id="oz6MJc3T6-2aMoKs3kDX-21" style="edgeStyle=orthogonalEdgeStyle;rounded=0;orthogonalLoop=1;jettySize=auto;html=1;entryX=0;entryY=0.5;entryDx=0;entryDy=0;entryPerimeter=0;" edge="1" parent="WIyWlLk6GJQsqaUBKTNV-1" source="oz6MJc3T6-2aMoKs3kDX-18" target="oz6MJc3T6-2aMoKs3kDX-19">
          <mxGeometry relative="1" as="geometry">
            <mxPoint x="240" y="840" as="targetPoint" />
            <Array as="points">
              <mxPoint x="240" y="830" />
            </Array>
          </mxGeometry>
        </mxCell>
        <mxCell id="oz6MJc3T6-2aMoKs3kDX-18" value="PT = HT*PH" style="rounded=0;whiteSpace=wrap;html=1;" vertex="1" parent="WIyWlLk6GJQsqaUBKTNV-1">
          <mxGeometry x="170" y="660" width="140" height="70" as="geometry" />
        </mxCell>
        <mxCell id="oz6MJc3T6-2aMoKs3kDX-23" style="edgeStyle=orthogonalEdgeStyle;rounded=0;orthogonalLoop=1;jettySize=auto;html=1;entryX=0.5;entryY=0;entryDx=0;entryDy=0;" edge="1" parent="WIyWlLk6GJQsqaUBKTNV-1" source="oz6MJc3T6-2aMoKs3kDX-19" target="oz6MJc3T6-2aMoKs3kDX-20">
          <mxGeometry relative="1" as="geometry">
            <Array as="points" />
          </mxGeometry>
        </mxCell>
        <mxCell id="oz6MJc3T6-2aMoKs3kDX-19" value="Imprimir &quot;El pago total &lt;br&gt;es: &quot;+PT" style="shape=display;whiteSpace=wrap;html=1;" vertex="1" parent="WIyWlLk6GJQsqaUBKTNV-1">
          <mxGeometry x="337" y="790" width="154" height="80" as="geometry" />
        </mxCell>
        <mxCell id="oz6MJc3T6-2aMoKs3kDX-20" value="Fin" style="ellipse;whiteSpace=wrap;html=1;" vertex="1" parent="WIyWlLk6GJQsqaUBKTNV-1">
          <mxGeometry x="354" y="940" width="120" height="80" as="geometry" />
        </mxCell>
      </root>
    </mxGraphModel>
  </diagram>
</mxfile>
